<svg xmlns="http://www.w3.org/2000/svg" width="1080" height="1920" viewBox="0 0 1080 1920">
  <defs><style>@font-face{font-family:Space Grotesk;src:url('fonts/space-grotesk-700.woff2')} .brand{font-family:'Space Grotesk',sans-serif;font-size:54px;font-weight:700;letter-spacing:5px}</style></defs>
  <rect width="1080" height="1920" fill="#d8d5ce"/><rect x="28" y="28" width="1024" height="1864" rx="20" fill="none" stroke="#292929" stroke-width="5"/><rect x="42" y="42" width="996" height="1836" rx="16" fill="none" stroke="#292929" stroke-width="2"/>
  <g fill="#292929"><rect x="72" y="72" width="24" height="34"/><rect x="72" y="1814" width="24" height="34"/><rect x="124" y="72" width="24" height="34"/><rect x="124" y="1814" width="24" height="34"/><rect x="176" y="72" width="24" height="34"/><rect x="176" y="1814" width="24" height="34"/><rect x="228" y="72" width="24" height="34"/><rect x="228" y="1814" width="24" height="34"/><rect x="280" y="72" width="24" height="34"/><rect x="280" y="1814" width="24" height="34"/><rect x="332" y="72" width="24" height="34"/><rect x="332" y="1814" width="24" height="34"/><rect x="384" y="72" width="24" height="34"/><rect x="384" y="1814" width="24" height="34"/><rect x="436" y="72" width="24" height="34"/><rect x="436" y="1814" width="24" height="34"/><rect x="488" y="72" width="24" height="34"/><rect x="488" y="1814" width="24" height="34"/><rect x="540" y="72" width="24" height="34"/><rect x="540" y="1814" width="24" height="34"/><rect x="592" y="72" width="24" height="34"/><rect x="592" y="1814" width="24" height="34"/><rect x="644" y="72" width="24" height="34"/><rect x="644" y="1814" width="24" height="34"/><rect x="696" y="72" width="24" height="34"/><rect x="696" y="1814" width="24" height="34"/><rect x="748" y="72" width="24" height="34"/><rect x="748" y="1814" width="24" height="34"/><rect x="800" y="72" width="24" height="34"/><rect x="800" y="1814" width="24" height="34"/><rect x="852" y="72" width="24" height="34"/><rect x="852" y="1814" width="24" height="34"/><rect x="904" y="72" width="24" height="34"/><rect x="904" y="1814" width="24" height="34"/><rect x="956" y="72" width="24" height="34"/><rect x="956" y="1814" width="24" height="34"/></g><text class="brand" x="540" y="142" fill="#292929" text-anchor="middle">Studio9060</text><rect x="64" y="210" width="952" height="492" rx="12" fill="#fff" stroke="#292929" stroke-width="10"/><rect x="51" y="197" width="978" height="518" rx="18" fill="none" stroke="#292929" stroke-width="3"/><rect x="64" y="734" width="952" height="492" rx="12" fill="#fff" stroke="#292929" stroke-width="10"/><rect x="51" y="721" width="978" height="518" rx="18" fill="none" stroke="#292929" stroke-width="3"/><rect x="64" y="1258" width="952" height="492" rx="12" fill="#fff" stroke="#292929" stroke-width="10"/><rect x="51" y="1245" width="978" height="518" rx="18" fill="none" stroke="#292929" stroke-width="3"/>
  <g transform="translate(540 1840)" stroke="#292929" fill="none" stroke-width="5"><rect x="-31" y="-24" width="62" height="48" rx="10"/><circle r="13"/><path d="M-18-24l8-12h20l8 12"/></g>
  </svg>